<mxfile host="app.diagrams.net" modified="2020-10-27T09:45:51.701Z" agent="5.0 (Macintosh; Intel Mac OS X 10_14_6) AppleWebKit/537.36 (KHTML, like Gecko) Chrome/86.0.4240.80 Safari/537.36" etag="Zlo9lOBezsSLEgJuAIqF" version="13.8.3" type="github">
  <diagram id="W0PIrgdUMLI96M_QNtbx" name="Page-1">
    <mxGraphModel dx="5815" dy="3088" grid="1" gridSize="10" guides="1" tooltips="1" connect="1" arrows="1" fold="1" page="1" pageScale="1" pageWidth="827" pageHeight="1169" math="0" shadow="0">
      <root>
        <mxCell id="0" />
        <mxCell id="1" parent="0" />
        <mxCell id="cEMwxvn-d5G1xKP16MCN-55" style="edgeStyle=orthogonalEdgeStyle;rounded=0;orthogonalLoop=1;jettySize=auto;html=1;entryX=0;entryY=0.5;entryDx=0;entryDy=0;" parent="1" source="cEMwxvn-d5G1xKP16MCN-1" target="cEMwxvn-d5G1xKP16MCN-2" edge="1">
          <mxGeometry relative="1" as="geometry" />
        </mxCell>
        <mxCell id="cEMwxvn-d5G1xKP16MCN-1" value="Web前端服务" style="rounded=0;whiteSpace=wrap;html=1;" parent="1" vertex="1">
          <mxGeometry x="380" y="80" width="130" height="100" as="geometry" />
        </mxCell>
        <mxCell id="cEMwxvn-d5G1xKP16MCN-2" value="Web后端服务" style="rounded=0;whiteSpace=wrap;html=1;" parent="1" vertex="1">
          <mxGeometry x="640" y="80" width="140" height="100" as="geometry" />
        </mxCell>
        <mxCell id="cEMwxvn-d5G1xKP16MCN-3" value="DB" style="shape=datastore;whiteSpace=wrap;html=1;" parent="1" vertex="1">
          <mxGeometry x="950" y="30" width="150" height="180" as="geometry" />
        </mxCell>
        <mxCell id="cEMwxvn-d5G1xKP16MCN-15" value="Appium后端" style="rounded=0;whiteSpace=wrap;html=1;" parent="1" vertex="1">
          <mxGeometry x="510" y="270" width="130" height="100" as="geometry" />
        </mxCell>
        <mxCell id="cEMwxvn-d5G1xKP16MCN-53" value="" style="edgeStyle=orthogonalEdgeStyle;rounded=0;orthogonalLoop=1;jettySize=auto;html=1;" parent="1" source="cEMwxvn-d5G1xKP16MCN-16" target="cEMwxvn-d5G1xKP16MCN-15" edge="1">
          <mxGeometry relative="1" as="geometry" />
        </mxCell>
        <mxCell id="cEMwxvn-d5G1xKP16MCN-54" value="" style="edgeStyle=orthogonalEdgeStyle;rounded=0;orthogonalLoop=1;jettySize=auto;html=1;" parent="1" source="cEMwxvn-d5G1xKP16MCN-16" target="cEMwxvn-d5G1xKP16MCN-2" edge="1">
          <mxGeometry relative="1" as="geometry" />
        </mxCell>
        <mxCell id="cEMwxvn-d5G1xKP16MCN-16" value="Appium客户端" style="rounded=0;whiteSpace=wrap;html=1;" parent="1" vertex="1">
          <mxGeometry x="750" y="270" width="130" height="100" as="geometry" />
        </mxCell>
        <mxCell id="cEMwxvn-d5G1xKP16MCN-51" value="" style="edgeStyle=orthogonalEdgeStyle;rounded=0;orthogonalLoop=1;jettySize=auto;html=1;" parent="1" source="cEMwxvn-d5G1xKP16MCN-18" target="cEMwxvn-d5G1xKP16MCN-15" edge="1">
          <mxGeometry relative="1" as="geometry" />
        </mxCell>
        <mxCell id="cEMwxvn-d5G1xKP16MCN-18" value="" style="points=[[0.015,0.015,0],[0.985,0.015,0],[0.985,0.985,0],[0.015,0.985,0],[0.25,0,0],[0.5,0,0],[0.75,0,0],[1,0.25,0],[1,0.5,0],[1,0.75,0],[0.75,1,0],[0.5,1,0],[0.25,1,0],[0,0.75,0],[0,0.5,0],[0,0.25,0]];verticalLabelPosition=bottom;html=1;verticalAlign=top;aspect=fixed;align=center;pointerEvents=1;shape=mxgraph.cisco19.cell_phone;fillColor=#005073;strokeColor=none;" parent="1" vertex="1">
          <mxGeometry x="485" y="440" width="25" height="50" as="geometry" />
        </mxCell>
        <mxCell id="cEMwxvn-d5G1xKP16MCN-48" value="" style="edgeStyle=orthogonalEdgeStyle;rounded=0;orthogonalLoop=1;jettySize=auto;html=1;" parent="1" source="cEMwxvn-d5G1xKP16MCN-19" target="cEMwxvn-d5G1xKP16MCN-15" edge="1">
          <mxGeometry relative="1" as="geometry" />
        </mxCell>
        <mxCell id="cEMwxvn-d5G1xKP16MCN-19" value="" style="points=[[0.015,0.015,0],[0.985,0.015,0],[0.985,0.985,0],[0.015,0.985,0],[0.25,0,0],[0.5,0,0],[0.75,0,0],[1,0.25,0],[1,0.5,0],[1,0.75,0],[0.75,1,0],[0.5,1,0],[0.25,1,0],[0,0.75,0],[0,0.5,0],[0,0.25,0]];verticalLabelPosition=bottom;html=1;verticalAlign=top;aspect=fixed;align=center;pointerEvents=1;shape=mxgraph.cisco19.cell_phone;fillColor=#005073;strokeColor=none;" parent="1" vertex="1">
          <mxGeometry x="530" y="440" width="25" height="50" as="geometry" />
        </mxCell>
        <mxCell id="cEMwxvn-d5G1xKP16MCN-47" value="" style="edgeStyle=orthogonalEdgeStyle;rounded=0;orthogonalLoop=1;jettySize=auto;html=1;" parent="1" source="cEMwxvn-d5G1xKP16MCN-20" target="cEMwxvn-d5G1xKP16MCN-15" edge="1">
          <mxGeometry relative="1" as="geometry" />
        </mxCell>
        <mxCell id="cEMwxvn-d5G1xKP16MCN-20" value="" style="points=[[0.015,0.015,0],[0.985,0.015,0],[0.985,0.985,0],[0.015,0.985,0],[0.25,0,0],[0.5,0,0],[0.75,0,0],[1,0.25,0],[1,0.5,0],[1,0.75,0],[0.75,1,0],[0.5,1,0],[0.25,1,0],[0,0.75,0],[0,0.5,0],[0,0.25,0]];verticalLabelPosition=bottom;html=1;verticalAlign=top;aspect=fixed;align=center;pointerEvents=1;shape=mxgraph.cisco19.cell_phone;fillColor=#005073;strokeColor=none;" parent="1" vertex="1">
          <mxGeometry x="580" y="440" width="25" height="50" as="geometry" />
        </mxCell>
        <mxCell id="cEMwxvn-d5G1xKP16MCN-49" value="" style="edgeStyle=orthogonalEdgeStyle;rounded=0;orthogonalLoop=1;jettySize=auto;html=1;" parent="1" source="cEMwxvn-d5G1xKP16MCN-21" target="cEMwxvn-d5G1xKP16MCN-15" edge="1">
          <mxGeometry relative="1" as="geometry" />
        </mxCell>
        <mxCell id="cEMwxvn-d5G1xKP16MCN-21" value="" style="points=[[0.015,0.015,0],[0.985,0.015,0],[0.985,0.985,0],[0.015,0.985,0],[0.25,0,0],[0.5,0,0],[0.75,0,0],[1,0.25,0],[1,0.5,0],[1,0.75,0],[0.75,1,0],[0.5,1,0],[0.25,1,0],[0,0.75,0],[0,0.5,0],[0,0.25,0]];verticalLabelPosition=bottom;html=1;verticalAlign=top;aspect=fixed;align=center;pointerEvents=1;shape=mxgraph.cisco19.cell_phone;fillColor=#005073;strokeColor=none;" parent="1" vertex="1">
          <mxGeometry x="630" y="440" width="25" height="50" as="geometry" />
        </mxCell>
        <mxCell id="cEMwxvn-d5G1xKP16MCN-24" style="edgeStyle=orthogonalEdgeStyle;rounded=0;orthogonalLoop=1;jettySize=auto;html=1;entryX=0.5;entryY=1;entryDx=0;entryDy=0;" parent="1" source="cEMwxvn-d5G1xKP16MCN-23" target="cEMwxvn-d5G1xKP16MCN-1" edge="1">
          <mxGeometry relative="1" as="geometry" />
        </mxCell>
        <mxCell id="cEMwxvn-d5G1xKP16MCN-23" value="Actor" style="shape=umlActor;verticalLabelPosition=bottom;verticalAlign=top;html=1;outlineConnect=0;" parent="1" vertex="1">
          <mxGeometry x="290" y="230" width="30" height="50" as="geometry" />
        </mxCell>
        <mxCell id="cEMwxvn-d5G1xKP16MCN-57" style="edgeStyle=orthogonalEdgeStyle;rounded=0;orthogonalLoop=1;jettySize=auto;html=1;entryX=0;entryY=0.5;entryDx=0;entryDy=0;" parent="1" edge="1">
          <mxGeometry relative="1" as="geometry">
            <mxPoint x="780" y="120" as="sourcePoint" />
            <mxPoint x="950" y="120" as="targetPoint" />
          </mxGeometry>
        </mxCell>
        <mxCell id="cEMwxvn-d5G1xKP16MCN-58" value="写入" style="edgeLabel;html=1;align=center;verticalAlign=middle;resizable=0;points=[];" parent="cEMwxvn-d5G1xKP16MCN-57" vertex="1" connectable="0">
          <mxGeometry x="-0.0667" relative="1" as="geometry">
            <mxPoint as="offset" />
          </mxGeometry>
        </mxCell>
        <mxCell id="cEMwxvn-d5G1xKP16MCN-59" style="edgeStyle=orthogonalEdgeStyle;rounded=0;orthogonalLoop=1;jettySize=auto;html=1;exitX=0;exitY=0.7;exitDx=0;exitDy=0;entryX=1.023;entryY=0.86;entryDx=0;entryDy=0;entryPerimeter=0;" parent="1" edge="1">
          <mxGeometry relative="1" as="geometry">
            <mxPoint x="950" y="156" as="sourcePoint" />
            <mxPoint x="783.22" y="156" as="targetPoint" />
          </mxGeometry>
        </mxCell>
        <mxCell id="cEMwxvn-d5G1xKP16MCN-60" value="读取" style="edgeLabel;html=1;align=center;verticalAlign=middle;resizable=0;points=[];" parent="cEMwxvn-d5G1xKP16MCN-59" vertex="1" connectable="0">
          <mxGeometry x="0.111" y="2" relative="1" as="geometry">
            <mxPoint as="offset" />
          </mxGeometry>
        </mxCell>
        <mxCell id="cEMwxvn-d5G1xKP16MCN-66" value="" style="edgeStyle=orthogonalEdgeStyle;rounded=0;orthogonalLoop=1;jettySize=auto;html=1;" parent="1" source="cEMwxvn-d5G1xKP16MCN-65" target="cEMwxvn-d5G1xKP16MCN-16" edge="1">
          <mxGeometry relative="1" as="geometry" />
        </mxCell>
        <mxCell id="cEMwxvn-d5G1xKP16MCN-65" value="" style="ellipse;whiteSpace=wrap;html=1;aspect=fixed;" parent="1" vertex="1">
          <mxGeometry x="940" y="245" width="150" height="150" as="geometry" />
        </mxCell>
        <mxCell id="cEMwxvn-d5G1xKP16MCN-61" value="" style="shape=mxgraph.bpmn.shape;html=1;verticalLabelPosition=bottom;labelBackgroundColor=#ffffff;verticalAlign=top;align=center;perimeter=ellipsePerimeter;outlineConnect=0;outline=standard;symbol=timer;" parent="1" vertex="1">
          <mxGeometry x="985" y="292.5" width="60" height="55" as="geometry" />
        </mxCell>
        <mxCell id="bGqVBYWvXgwGC4I8pHL_-1" style="edgeStyle=orthogonalEdgeStyle;rounded=0;orthogonalLoop=1;jettySize=auto;html=1;entryX=0;entryY=0.5;entryDx=0;entryDy=0;" parent="1" source="bGqVBYWvXgwGC4I8pHL_-7" target="bGqVBYWvXgwGC4I8pHL_-12" edge="1">
          <mxGeometry relative="1" as="geometry" />
        </mxCell>
        <mxCell id="bGqVBYWvXgwGC4I8pHL_-2" value="上报控件中的流记录" style="edgeLabel;html=1;align=center;verticalAlign=middle;resizable=0;points=[];" parent="bGqVBYWvXgwGC4I8pHL_-1" vertex="1" connectable="0">
          <mxGeometry y="1" relative="1" as="geometry">
            <mxPoint as="offset" />
          </mxGeometry>
        </mxCell>
        <mxCell id="bGqVBYWvXgwGC4I8pHL_-3" value="根据指令结果" style="edgeLabel;html=1;align=center;verticalAlign=middle;resizable=0;points=[];" parent="bGqVBYWvXgwGC4I8pHL_-1" vertex="1" connectable="0">
          <mxGeometry x="-0.2585" y="2" relative="1" as="geometry">
            <mxPoint as="offset" />
          </mxGeometry>
        </mxCell>
        <mxCell id="bGqVBYWvXgwGC4I8pHL_-4" style="edgeStyle=orthogonalEdgeStyle;rounded=0;orthogonalLoop=1;jettySize=auto;html=1;" parent="1" source="bGqVBYWvXgwGC4I8pHL_-7" target="bGqVBYWvXgwGC4I8pHL_-28" edge="1">
          <mxGeometry relative="1" as="geometry" />
        </mxCell>
        <mxCell id="bGqVBYWvXgwGC4I8pHL_-5" value="发出UI指令" style="edgeLabel;html=1;align=center;verticalAlign=middle;resizable=0;points=[];" parent="bGqVBYWvXgwGC4I8pHL_-4" vertex="1" connectable="0">
          <mxGeometry x="-0.1211" y="2" relative="1" as="geometry">
            <mxPoint as="offset" />
          </mxGeometry>
        </mxCell>
        <mxCell id="bGqVBYWvXgwGC4I8pHL_-6" value="拉取配置" style="edgeStyle=orthogonalEdgeStyle;rounded=0;orthogonalLoop=1;jettySize=auto;html=1;entryX=0.25;entryY=1;entryDx=0;entryDy=0;" parent="1" source="bGqVBYWvXgwGC4I8pHL_-7" target="bGqVBYWvXgwGC4I8pHL_-32" edge="1">
          <mxGeometry relative="1" as="geometry" />
        </mxCell>
        <mxCell id="bGqVBYWvXgwGC4I8pHL_-7" value="Appium客户端" style="rounded=0;whiteSpace=wrap;html=1;" parent="1" vertex="1">
          <mxGeometry x="-980" y="100" width="120" height="60" as="geometry" />
        </mxCell>
        <mxCell id="bGqVBYWvXgwGC4I8pHL_-8" style="edgeStyle=orthogonalEdgeStyle;rounded=0;orthogonalLoop=1;jettySize=auto;html=1;" parent="1" source="bGqVBYWvXgwGC4I8pHL_-12" target="bGqVBYWvXgwGC4I8pHL_-23" edge="1">
          <mxGeometry relative="1" as="geometry">
            <Array as="points">
              <mxPoint x="-515" y="175" />
              <mxPoint x="-515" y="228" />
            </Array>
          </mxGeometry>
        </mxCell>
        <mxCell id="bGqVBYWvXgwGC4I8pHL_-9" value="写入" style="edgeLabel;html=1;align=center;verticalAlign=middle;resizable=0;points=[];" parent="bGqVBYWvXgwGC4I8pHL_-8" vertex="1" connectable="0">
          <mxGeometry x="-0.0889" y="-3" relative="1" as="geometry">
            <mxPoint as="offset" />
          </mxGeometry>
        </mxCell>
        <mxCell id="bGqVBYWvXgwGC4I8pHL_-10" style="edgeStyle=orthogonalEdgeStyle;rounded=0;orthogonalLoop=1;jettySize=auto;html=1;entryX=1;entryY=0.5;entryDx=0;entryDy=0;" parent="1" source="bGqVBYWvXgwGC4I8pHL_-12" target="bGqVBYWvXgwGC4I8pHL_-17" edge="1">
          <mxGeometry relative="1" as="geometry">
            <Array as="points">
              <mxPoint x="-620" y="290" />
              <mxPoint x="-480" y="290" />
              <mxPoint x="-480" y="354" />
              <mxPoint x="-430" y="354" />
              <mxPoint x="-430" y="390" />
            </Array>
          </mxGeometry>
        </mxCell>
        <mxCell id="bGqVBYWvXgwGC4I8pHL_-11" value="返回流记录" style="edgeLabel;html=1;align=center;verticalAlign=middle;resizable=0;points=[];" parent="bGqVBYWvXgwGC4I8pHL_-10" vertex="1" connectable="0">
          <mxGeometry x="0.0207" relative="1" as="geometry">
            <mxPoint y="-53" as="offset" />
          </mxGeometry>
        </mxCell>
        <mxCell id="bGqVBYWvXgwGC4I8pHL_-12" value="我的后端" style="rounded=0;whiteSpace=wrap;html=1;" parent="1" vertex="1">
          <mxGeometry x="-700" y="145" width="120" height="60" as="geometry" />
        </mxCell>
        <mxCell id="bGqVBYWvXgwGC4I8pHL_-13" style="edgeStyle=orthogonalEdgeStyle;rounded=0;orthogonalLoop=1;jettySize=auto;html=1;entryX=0.25;entryY=1;entryDx=0;entryDy=0;" parent="1" source="bGqVBYWvXgwGC4I8pHL_-17" target="bGqVBYWvXgwGC4I8pHL_-12" edge="1">
          <mxGeometry relative="1" as="geometry">
            <mxPoint x="-600" y="210" as="targetPoint" />
          </mxGeometry>
        </mxCell>
        <mxCell id="bGqVBYWvXgwGC4I8pHL_-14" value="获取流记录" style="edgeLabel;html=1;align=center;verticalAlign=middle;resizable=0;points=[];" parent="bGqVBYWvXgwGC4I8pHL_-13" vertex="1" connectable="0">
          <mxGeometry x="0.1086" y="2" relative="1" as="geometry">
            <mxPoint as="offset" />
          </mxGeometry>
        </mxCell>
        <mxCell id="bGqVBYWvXgwGC4I8pHL_-15" style="edgeStyle=orthogonalEdgeStyle;rounded=0;orthogonalLoop=1;jettySize=auto;html=1;entryX=1;entryY=0.5;entryDx=0;entryDy=0;" parent="1" source="bGqVBYWvXgwGC4I8pHL_-17" target="bGqVBYWvXgwGC4I8pHL_-20" edge="1">
          <mxGeometry relative="1" as="geometry" />
        </mxCell>
        <mxCell id="bGqVBYWvXgwGC4I8pHL_-16" value="获取采集数据" style="edgeLabel;html=1;align=center;verticalAlign=middle;resizable=0;points=[];" parent="bGqVBYWvXgwGC4I8pHL_-15" vertex="1" connectable="0">
          <mxGeometry x="-0.1833" y="-3" relative="1" as="geometry">
            <mxPoint x="-11" y="3" as="offset" />
          </mxGeometry>
        </mxCell>
        <mxCell id="bGqVBYWvXgwGC4I8pHL_-133" style="edgeStyle=orthogonalEdgeStyle;rounded=0;orthogonalLoop=1;jettySize=auto;html=1;" parent="1" source="bGqVBYWvXgwGC4I8pHL_-17" edge="1">
          <mxGeometry relative="1" as="geometry">
            <mxPoint x="-400" y="510" as="targetPoint" />
            <Array as="points">
              <mxPoint x="-400" y="410" />
            </Array>
          </mxGeometry>
        </mxCell>
        <mxCell id="bGqVBYWvXgwGC4I8pHL_-17" value="自动化报告应用" style="rounded=0;whiteSpace=wrap;html=1;" parent="1" vertex="1">
          <mxGeometry x="-720" y="360" width="120" height="60" as="geometry" />
        </mxCell>
        <mxCell id="bGqVBYWvXgwGC4I8pHL_-18" style="edgeStyle=orthogonalEdgeStyle;rounded=0;orthogonalLoop=1;jettySize=auto;html=1;entryX=0.5;entryY=1;entryDx=0;entryDy=0;" parent="1" source="bGqVBYWvXgwGC4I8pHL_-20" target="bGqVBYWvXgwGC4I8pHL_-17" edge="1">
          <mxGeometry relative="1" as="geometry">
            <Array as="points">
              <mxPoint x="-900" y="555" />
              <mxPoint x="-560" y="555" />
              <mxPoint x="-560" y="460" />
              <mxPoint x="-660" y="460" />
            </Array>
          </mxGeometry>
        </mxCell>
        <mxCell id="bGqVBYWvXgwGC4I8pHL_-19" value="返回采集数据" style="edgeLabel;html=1;align=center;verticalAlign=middle;resizable=0;points=[];" parent="bGqVBYWvXgwGC4I8pHL_-18" vertex="1" connectable="0">
          <mxGeometry x="-0.5085" y="91" relative="1" as="geometry">
            <mxPoint as="offset" />
          </mxGeometry>
        </mxCell>
        <mxCell id="bGqVBYWvXgwGC4I8pHL_-20" value="采集数据后端" style="rounded=0;whiteSpace=wrap;html=1;" parent="1" vertex="1">
          <mxGeometry x="-950" y="305" width="120" height="60" as="geometry" />
        </mxCell>
        <mxCell id="bGqVBYWvXgwGC4I8pHL_-21" style="edgeStyle=orthogonalEdgeStyle;rounded=0;orthogonalLoop=1;jettySize=auto;html=1;entryX=0.5;entryY=0;entryDx=0;entryDy=0;" parent="1" source="bGqVBYWvXgwGC4I8pHL_-23" target="bGqVBYWvXgwGC4I8pHL_-12" edge="1">
          <mxGeometry relative="1" as="geometry">
            <mxPoint x="-420" y="90" as="targetPoint" />
            <Array as="points">
              <mxPoint x="-520" y="128" />
              <mxPoint x="-520" y="100" />
              <mxPoint x="-640" y="100" />
            </Array>
          </mxGeometry>
        </mxCell>
        <mxCell id="bGqVBYWvXgwGC4I8pHL_-22" value="读取" style="edgeLabel;html=1;align=center;verticalAlign=middle;resizable=0;points=[];" parent="bGqVBYWvXgwGC4I8pHL_-21" vertex="1" connectable="0">
          <mxGeometry x="0.0891" relative="1" as="geometry">
            <mxPoint as="offset" />
          </mxGeometry>
        </mxCell>
        <mxCell id="bGqVBYWvXgwGC4I8pHL_-23" value="DB" style="shape=cylinder3;whiteSpace=wrap;html=1;boundedLbl=1;backgroundOutline=1;size=15;" parent="1" vertex="1">
          <mxGeometry x="-350" y="50" width="120" height="160" as="geometry" />
        </mxCell>
        <mxCell id="bGqVBYWvXgwGC4I8pHL_-24" style="edgeStyle=orthogonalEdgeStyle;rounded=0;orthogonalLoop=1;jettySize=auto;html=1;entryX=1.029;entryY=0.671;entryDx=0;entryDy=0;entryPerimeter=0;" parent="1" source="bGqVBYWvXgwGC4I8pHL_-28" target="bGqVBYWvXgwGC4I8pHL_-31" edge="1">
          <mxGeometry relative="1" as="geometry" />
        </mxCell>
        <mxCell id="bGqVBYWvXgwGC4I8pHL_-25" value="指令传达到手机" style="edgeLabel;html=1;align=center;verticalAlign=middle;resizable=0;points=[];" parent="bGqVBYWvXgwGC4I8pHL_-24" vertex="1" connectable="0">
          <mxGeometry x="0.0638" y="-4" relative="1" as="geometry">
            <mxPoint y="1" as="offset" />
          </mxGeometry>
        </mxCell>
        <mxCell id="bGqVBYWvXgwGC4I8pHL_-26" style="edgeStyle=orthogonalEdgeStyle;rounded=0;orthogonalLoop=1;jettySize=auto;html=1;" parent="1" source="bGqVBYWvXgwGC4I8pHL_-28" target="bGqVBYWvXgwGC4I8pHL_-7" edge="1">
          <mxGeometry relative="1" as="geometry" />
        </mxCell>
        <mxCell id="bGqVBYWvXgwGC4I8pHL_-27" value="返回指令结果" style="edgeLabel;html=1;align=center;verticalAlign=middle;resizable=0;points=[];" parent="bGqVBYWvXgwGC4I8pHL_-26" vertex="1" connectable="0">
          <mxGeometry x="-0.0648" y="-2" relative="1" as="geometry">
            <mxPoint y="1" as="offset" />
          </mxGeometry>
        </mxCell>
        <mxCell id="bGqVBYWvXgwGC4I8pHL_-28" value="Appium服务端" style="rounded=0;whiteSpace=wrap;html=1;" parent="1" vertex="1">
          <mxGeometry x="-1140" y="207.5" width="120" height="60" as="geometry" />
        </mxCell>
        <mxCell id="bGqVBYWvXgwGC4I8pHL_-29" style="edgeStyle=orthogonalEdgeStyle;rounded=0;orthogonalLoop=1;jettySize=auto;html=1;entryX=0;entryY=0.392;entryDx=0;entryDy=0;entryPerimeter=0;" parent="1" source="bGqVBYWvXgwGC4I8pHL_-31" target="bGqVBYWvXgwGC4I8pHL_-28" edge="1">
          <mxGeometry relative="1" as="geometry">
            <mxPoint x="-1210" y="370" as="targetPoint" />
            <Array as="points">
              <mxPoint x="-1160" y="380" />
              <mxPoint x="-1160" y="231" />
            </Array>
          </mxGeometry>
        </mxCell>
        <mxCell id="bGqVBYWvXgwGC4I8pHL_-30" value="返回指令结果" style="edgeLabel;html=1;align=center;verticalAlign=middle;resizable=0;points=[];" parent="bGqVBYWvXgwGC4I8pHL_-29" vertex="1" connectable="0">
          <mxGeometry x="0.1197" y="-3" relative="1" as="geometry">
            <mxPoint as="offset" />
          </mxGeometry>
        </mxCell>
        <mxCell id="bGqVBYWvXgwGC4I8pHL_-136" style="edgeStyle=orthogonalEdgeStyle;rounded=0;orthogonalLoop=1;jettySize=auto;html=1;entryX=0.5;entryY=0;entryDx=0;entryDy=0;" parent="1" source="bGqVBYWvXgwGC4I8pHL_-31" target="bGqVBYWvXgwGC4I8pHL_-135" edge="1">
          <mxGeometry relative="1" as="geometry" />
        </mxCell>
        <mxCell id="bGqVBYWvXgwGC4I8pHL_-138" value="翻译指令" style="edgeLabel;html=1;align=center;verticalAlign=middle;resizable=0;points=[];" parent="bGqVBYWvXgwGC4I8pHL_-136" vertex="1" connectable="0">
          <mxGeometry x="-0.0847" y="-2" relative="1" as="geometry">
            <mxPoint x="1" as="offset" />
          </mxGeometry>
        </mxCell>
        <mxCell id="bGqVBYWvXgwGC4I8pHL_-31" value="" style="html=1;verticalLabelPosition=bottom;labelBackgroundColor=#ffffff;verticalAlign=top;shadow=0;dashed=0;strokeWidth=1;shape=mxgraph.ios7.misc.iphone;strokeColor=#c0c0c0;" parent="1" vertex="1">
          <mxGeometry x="-1097.5" y="365" width="35" height="70" as="geometry" />
        </mxCell>
        <mxCell id="bGqVBYWvXgwGC4I8pHL_-38" style="edgeStyle=orthogonalEdgeStyle;rounded=0;orthogonalLoop=1;jettySize=auto;html=1;entryX=1.025;entryY=0.563;entryDx=0;entryDy=0;entryPerimeter=0;" parent="1" source="bGqVBYWvXgwGC4I8pHL_-32" target="bGqVBYWvXgwGC4I8pHL_-37" edge="1">
          <mxGeometry relative="1" as="geometry">
            <Array as="points">
              <mxPoint x="-1240" y="-10" />
              <mxPoint x="-1240" y="100" />
            </Array>
          </mxGeometry>
        </mxCell>
        <mxCell id="bGqVBYWvXgwGC4I8pHL_-39" value="写入配置" style="edgeLabel;html=1;align=center;verticalAlign=middle;resizable=0;points=[];" parent="bGqVBYWvXgwGC4I8pHL_-38" vertex="1" connectable="0">
          <mxGeometry x="0.116" relative="1" as="geometry">
            <mxPoint x="1" y="-0.1" as="offset" />
          </mxGeometry>
        </mxCell>
        <mxCell id="bGqVBYWvXgwGC4I8pHL_-41" style="edgeStyle=orthogonalEdgeStyle;rounded=0;orthogonalLoop=1;jettySize=auto;html=1;entryX=0.5;entryY=0;entryDx=0;entryDy=0;entryPerimeter=0;" parent="1" source="bGqVBYWvXgwGC4I8pHL_-32" target="bGqVBYWvXgwGC4I8pHL_-37" edge="1">
          <mxGeometry relative="1" as="geometry">
            <Array as="points">
              <mxPoint x="-1020" y="-170" />
              <mxPoint x="-1440" y="-170" />
            </Array>
          </mxGeometry>
        </mxCell>
        <mxCell id="bGqVBYWvXgwGC4I8pHL_-42" value="拉取配置" style="edgeLabel;html=1;align=center;verticalAlign=middle;resizable=0;points=[];" parent="bGqVBYWvXgwGC4I8pHL_-41" vertex="1" connectable="0">
          <mxGeometry x="0.0065" relative="1" as="geometry">
            <mxPoint as="offset" />
          </mxGeometry>
        </mxCell>
        <mxCell id="bGqVBYWvXgwGC4I8pHL_-47" style="edgeStyle=orthogonalEdgeStyle;rounded=0;orthogonalLoop=1;jettySize=auto;html=1;" parent="1" source="bGqVBYWvXgwGC4I8pHL_-32" edge="1">
          <mxGeometry relative="1" as="geometry">
            <mxPoint x="-880" y="90" as="targetPoint" />
          </mxGeometry>
        </mxCell>
        <mxCell id="bGqVBYWvXgwGC4I8pHL_-48" value="返回配置" style="edgeLabel;html=1;align=center;verticalAlign=middle;resizable=0;points=[];" parent="bGqVBYWvXgwGC4I8pHL_-47" vertex="1" connectable="0">
          <mxGeometry x="-0.1579" y="-6" relative="1" as="geometry">
            <mxPoint x="6" y="6" as="offset" />
          </mxGeometry>
        </mxCell>
        <mxCell id="bGqVBYWvXgwGC4I8pHL_-32" value="中心服务后端" style="rounded=0;whiteSpace=wrap;html=1;" parent="1" vertex="1">
          <mxGeometry x="-1090" y="-50" width="120" height="60" as="geometry" />
        </mxCell>
        <mxCell id="bGqVBYWvXgwGC4I8pHL_-44" style="edgeStyle=orthogonalEdgeStyle;rounded=0;orthogonalLoop=1;jettySize=auto;html=1;entryX=0.75;entryY=0;entryDx=0;entryDy=0;" parent="1" source="bGqVBYWvXgwGC4I8pHL_-35" target="bGqVBYWvXgwGC4I8pHL_-32" edge="1">
          <mxGeometry relative="1" as="geometry" />
        </mxCell>
        <mxCell id="bGqVBYWvXgwGC4I8pHL_-46" value="录入配置" style="edgeLabel;html=1;align=center;verticalAlign=middle;resizable=0;points=[];" parent="bGqVBYWvXgwGC4I8pHL_-44" vertex="1" connectable="0">
          <mxGeometry x="-0.3143" relative="1" as="geometry">
            <mxPoint as="offset" />
          </mxGeometry>
        </mxCell>
        <mxCell id="bGqVBYWvXgwGC4I8pHL_-35" value="Web前端" style="rounded=0;whiteSpace=wrap;html=1;" parent="1" vertex="1">
          <mxGeometry x="-840" y="-140" width="120" height="60" as="geometry" />
        </mxCell>
        <mxCell id="bGqVBYWvXgwGC4I8pHL_-36" value="&lt;font style=&quot;font-size: 24px&quot;&gt;自动化应用、自动化报告、工作过程1.0（不含Jenkins）&lt;/font&gt;" style="text;html=1;strokeColor=none;fillColor=none;align=center;verticalAlign=middle;whiteSpace=wrap;rounded=0;" parent="1" vertex="1">
          <mxGeometry x="-1150" y="-230" width="660" height="30" as="geometry" />
        </mxCell>
        <mxCell id="bGqVBYWvXgwGC4I8pHL_-37" value="中心服务DB" style="shape=cylinder3;whiteSpace=wrap;html=1;boundedLbl=1;backgroundOutline=1;size=15;" parent="1" vertex="1">
          <mxGeometry x="-1500" y="10" width="120" height="160" as="geometry" />
        </mxCell>
        <mxCell id="bGqVBYWvXgwGC4I8pHL_-49" value="" style="endArrow=classic;html=1;exitX=0.25;exitY=0;exitDx=0;exitDy=0;" parent="1" source="bGqVBYWvXgwGC4I8pHL_-12" edge="1">
          <mxGeometry width="50" height="50" relative="1" as="geometry">
            <mxPoint x="-690" y="140" as="sourcePoint" />
            <mxPoint x="-958" y="-42" as="targetPoint" />
            <Array as="points">
              <mxPoint x="-760" y="-40" />
            </Array>
          </mxGeometry>
        </mxCell>
        <mxCell id="bGqVBYWvXgwGC4I8pHL_-50" value="告知任务结果" style="edgeLabel;html=1;align=center;verticalAlign=middle;resizable=0;points=[];" parent="bGqVBYWvXgwGC4I8pHL_-49" vertex="1" connectable="0">
          <mxGeometry x="-0.1558" y="-2" relative="1" as="geometry">
            <mxPoint as="offset" />
          </mxGeometry>
        </mxCell>
        <mxCell id="bGqVBYWvXgwGC4I8pHL_-53" value="&lt;font style=&quot;font-size: 24px&quot;&gt;自动化应用、自动化报告、工作过程（第一期，旧版本）&lt;/font&gt;" style="text;html=1;strokeColor=none;fillColor=none;align=center;verticalAlign=middle;whiteSpace=wrap;rounded=0;" parent="1" vertex="1">
          <mxGeometry x="-2240" y="-1180" width="740" height="30" as="geometry" />
        </mxCell>
        <mxCell id="bGqVBYWvXgwGC4I8pHL_-68" value="启动" style="edgeStyle=orthogonalEdgeStyle;rounded=0;orthogonalLoop=1;jettySize=auto;html=1;entryX=1;entryY=0.5;entryDx=0;entryDy=0;" parent="1" source="bGqVBYWvXgwGC4I8pHL_-57" target="bGqVBYWvXgwGC4I8pHL_-59" edge="1">
          <mxGeometry relative="1" as="geometry" />
        </mxCell>
        <mxCell id="bGqVBYWvXgwGC4I8pHL_-57" value="Jenkins前端" style="rounded=1;whiteSpace=wrap;html=1;" parent="1" vertex="1">
          <mxGeometry x="-1562.5" y="-730" width="120" height="60" as="geometry" />
        </mxCell>
        <mxCell id="bGqVBYWvXgwGC4I8pHL_-58" value="Git服务端" style="whiteSpace=wrap;html=1;aspect=fixed;" parent="1" vertex="1">
          <mxGeometry x="-2190" y="-600" width="80" height="80" as="geometry" />
        </mxCell>
        <mxCell id="bGqVBYWvXgwGC4I8pHL_-71" style="edgeStyle=orthogonalEdgeStyle;rounded=0;orthogonalLoop=1;jettySize=auto;html=1;" parent="1" source="bGqVBYWvXgwGC4I8pHL_-59" target="bGqVBYWvXgwGC4I8pHL_-58" edge="1">
          <mxGeometry relative="1" as="geometry" />
        </mxCell>
        <mxCell id="bGqVBYWvXgwGC4I8pHL_-74" style="edgeStyle=orthogonalEdgeStyle;rounded=0;orthogonalLoop=1;jettySize=auto;html=1;" parent="1" source="bGqVBYWvXgwGC4I8pHL_-59" edge="1">
          <mxGeometry relative="1" as="geometry">
            <mxPoint x="-1690" y="-620" as="targetPoint" />
            <Array as="points">
              <mxPoint x="-1960" y="-535" />
              <mxPoint x="-1810" y="-535" />
            </Array>
          </mxGeometry>
        </mxCell>
        <mxCell id="bGqVBYWvXgwGC4I8pHL_-75" value="bash进程" style="edgeLabel;html=1;align=center;verticalAlign=middle;resizable=0;points=[];" parent="bGqVBYWvXgwGC4I8pHL_-74" vertex="1" connectable="0">
          <mxGeometry x="-0.2426" y="2" relative="1" as="geometry">
            <mxPoint as="offset" />
          </mxGeometry>
        </mxCell>
        <mxCell id="bGqVBYWvXgwGC4I8pHL_-81" style="edgeStyle=orthogonalEdgeStyle;rounded=0;orthogonalLoop=1;jettySize=auto;html=1;entryX=1;entryY=0.5;entryDx=0;entryDy=0;" parent="1" source="bGqVBYWvXgwGC4I8pHL_-59" target="bGqVBYWvXgwGC4I8pHL_-82" edge="1">
          <mxGeometry relative="1" as="geometry">
            <mxPoint x="-1930" y="-860" as="targetPoint" />
          </mxGeometry>
        </mxCell>
        <mxCell id="bGqVBYWvXgwGC4I8pHL_-83" value="bash进程" style="edgeLabel;html=1;align=center;verticalAlign=middle;resizable=0;points=[];" parent="bGqVBYWvXgwGC4I8pHL_-81" vertex="1" connectable="0">
          <mxGeometry x="0.0159" y="-3" relative="1" as="geometry">
            <mxPoint as="offset" />
          </mxGeometry>
        </mxCell>
        <mxCell id="bGqVBYWvXgwGC4I8pHL_-86" style="edgeStyle=orthogonalEdgeStyle;rounded=0;orthogonalLoop=1;jettySize=auto;html=1;exitX=1;exitY=0.25;exitDx=0;exitDy=0;entryX=1;entryY=0.5;entryDx=0;entryDy=0;" parent="1" source="bGqVBYWvXgwGC4I8pHL_-59" target="bGqVBYWvXgwGC4I8pHL_-88" edge="1">
          <mxGeometry relative="1" as="geometry">
            <mxPoint x="-1890" y="-980" as="targetPoint" />
            <mxPoint x="-1905" y="-760" as="sourcePoint" />
            <Array as="points">
              <mxPoint x="-1940" y="-755" />
              <mxPoint x="-1700" y="-755" />
              <mxPoint x="-1700" y="-1090" />
              <mxPoint x="-1760" y="-1090" />
              <mxPoint x="-1760" y="-1100" />
            </Array>
          </mxGeometry>
        </mxCell>
        <mxCell id="bGqVBYWvXgwGC4I8pHL_-87" value="bash进程发出命令" style="edgeLabel;html=1;align=center;verticalAlign=middle;resizable=0;points=[];" parent="bGqVBYWvXgwGC4I8pHL_-86" vertex="1" connectable="0">
          <mxGeometry x="0.175" y="-2" relative="1" as="geometry">
            <mxPoint as="offset" />
          </mxGeometry>
        </mxCell>
        <mxCell id="bGqVBYWvXgwGC4I8pHL_-96" style="edgeStyle=orthogonalEdgeStyle;rounded=0;orthogonalLoop=1;jettySize=auto;html=1;" parent="1" source="bGqVBYWvXgwGC4I8pHL_-59" edge="1">
          <mxGeometry relative="1" as="geometry">
            <mxPoint x="-2300" y="-700" as="targetPoint" />
          </mxGeometry>
        </mxCell>
        <mxCell id="bGqVBYWvXgwGC4I8pHL_-98" value="bash进程命令行" style="edgeLabel;html=1;align=center;verticalAlign=middle;resizable=0;points=[];" parent="bGqVBYWvXgwGC4I8pHL_-96" vertex="1" connectable="0">
          <mxGeometry x="0.1" y="-2" relative="1" as="geometry">
            <mxPoint as="offset" />
          </mxGeometry>
        </mxCell>
        <mxCell id="bGqVBYWvXgwGC4I8pHL_-59" value="Jenkins后端" style="rounded=1;whiteSpace=wrap;html=1;" parent="1" vertex="1">
          <mxGeometry x="-2120" y="-750" width="180" height="100" as="geometry" />
        </mxCell>
        <mxCell id="bGqVBYWvXgwGC4I8pHL_-94" style="edgeStyle=orthogonalEdgeStyle;rounded=0;orthogonalLoop=1;jettySize=auto;html=1;entryX=0.5;entryY=0;entryDx=0;entryDy=0;" parent="1" source="bGqVBYWvXgwGC4I8pHL_-62" edge="1" target="bGqVBYWvXgwGC4I8pHL_-57">
          <mxGeometry relative="1" as="geometry">
            <mxPoint x="-1502.5" y="-770" as="targetPoint" />
            <Array as="points" />
          </mxGeometry>
        </mxCell>
        <mxCell id="bGqVBYWvXgwGC4I8pHL_-62" value="Actor" style="shape=umlActor;verticalLabelPosition=bottom;verticalAlign=top;html=1;outlineConnect=0;" parent="1" vertex="1">
          <mxGeometry x="-1520" y="-1050" width="35" height="70" as="geometry" />
        </mxCell>
        <mxCell id="vUtNOjfx-Yac7MQ7vpSG-1" style="edgeStyle=orthogonalEdgeStyle;rounded=0;orthogonalLoop=1;jettySize=auto;html=1;entryX=1;entryY=0.5;entryDx=0;entryDy=0;" edge="1" parent="1" source="bGqVBYWvXgwGC4I8pHL_-63" target="bGqVBYWvXgwGC4I8pHL_-57">
          <mxGeometry relative="1" as="geometry" />
        </mxCell>
        <mxCell id="bGqVBYWvXgwGC4I8pHL_-63" value="" style="html=1;verticalLabelPosition=bottom;align=center;labelBackgroundColor=#ffffff;verticalAlign=top;strokeWidth=2;strokeColor=#0080F0;shadow=0;dashed=0;shape=mxgraph.ios7.icons.gauge;" parent="1" vertex="1">
          <mxGeometry x="-1400" y="-1055.5" width="83.31" height="81" as="geometry" />
        </mxCell>
        <mxCell id="bGqVBYWvXgwGC4I8pHL_-79" value="写入配置文件" style="shape=document;whiteSpace=wrap;html=1;boundedLbl=1;" parent="1" vertex="1">
          <mxGeometry x="-1680" y="-660" width="120" height="80" as="geometry" />
        </mxCell>
        <mxCell id="bGqVBYWvXgwGC4I8pHL_-85" style="edgeStyle=orthogonalEdgeStyle;rounded=0;orthogonalLoop=1;jettySize=auto;html=1;entryX=0.5;entryY=0;entryDx=0;entryDy=0;" parent="1" source="bGqVBYWvXgwGC4I8pHL_-82" target="bGqVBYWvXgwGC4I8pHL_-84" edge="1">
          <mxGeometry relative="1" as="geometry" />
        </mxCell>
        <mxCell id="bGqVBYWvXgwGC4I8pHL_-82" value="Gradle进程" style="rounded=0;whiteSpace=wrap;html=1;" parent="1" vertex="1">
          <mxGeometry x="-2180" y="-980" width="120" height="60" as="geometry" />
        </mxCell>
        <mxCell id="bGqVBYWvXgwGC4I8pHL_-84" value="1、清空构建&lt;br&gt;2、生成debug被测试应用&lt;br&gt;3、生成debug测试应用" style="shape=document;whiteSpace=wrap;html=1;boundedLbl=1;" parent="1" vertex="1">
          <mxGeometry x="-2420" y="-900" width="150" height="110" as="geometry" />
        </mxCell>
        <mxCell id="bGqVBYWvXgwGC4I8pHL_-89" style="edgeStyle=orthogonalEdgeStyle;rounded=0;orthogonalLoop=1;jettySize=auto;html=1;entryX=0.75;entryY=0;entryDx=0;entryDy=0;" parent="1" source="bGqVBYWvXgwGC4I8pHL_-88" target="bGqVBYWvXgwGC4I8pHL_-59" edge="1">
          <mxGeometry relative="1" as="geometry">
            <mxPoint x="-1985" y="-780" as="targetPoint" />
            <Array as="points">
              <mxPoint x="-1900" y="-900" />
              <mxPoint x="-1985" y="-900" />
            </Array>
          </mxGeometry>
        </mxCell>
        <mxCell id="bGqVBYWvXgwGC4I8pHL_-90" value="Post请求，观众应用构建" style="edgeLabel;html=1;align=center;verticalAlign=middle;resizable=0;points=[];" parent="bGqVBYWvXgwGC4I8pHL_-89" vertex="1" connectable="0">
          <mxGeometry x="-0.0523" y="-1" relative="1" as="geometry">
            <mxPoint x="32" y="-39" as="offset" />
          </mxGeometry>
        </mxCell>
        <mxCell id="bGqVBYWvXgwGC4I8pHL_-88" value="Curl进程" style="rounded=1;whiteSpace=wrap;html=1;" parent="1" vertex="1">
          <mxGeometry x="-1910" y="-1130" width="120" height="60" as="geometry" />
        </mxCell>
        <mxCell id="bGqVBYWvXgwGC4I8pHL_-102" style="edgeStyle=orthogonalEdgeStyle;rounded=0;orthogonalLoop=1;jettySize=auto;html=1;entryX=1;entryY=0.5;entryDx=0;entryDy=0;" parent="1" source="bGqVBYWvXgwGC4I8pHL_-97" target="bGqVBYWvXgwGC4I8pHL_-106" edge="1">
          <mxGeometry relative="1" as="geometry" />
        </mxCell>
        <mxCell id="bGqVBYWvXgwGC4I8pHL_-97" value="Gradle进程" style="rounded=0;whiteSpace=wrap;html=1;" parent="1" vertex="1">
          <mxGeometry x="-2440" y="-730" width="140" height="60" as="geometry" />
        </mxCell>
        <mxCell id="bGqVBYWvXgwGC4I8pHL_-103" style="edgeStyle=orthogonalEdgeStyle;rounded=0;orthogonalLoop=1;jettySize=auto;html=1;entryX=1;entryY=0.5;entryDx=0;entryDy=0;entryPerimeter=0;" parent="1" source="bGqVBYWvXgwGC4I8pHL_-100" target="bGqVBYWvXgwGC4I8pHL_-101" edge="1">
          <mxGeometry relative="1" as="geometry">
            <mxPoint x="-2580" y="-560" as="targetPoint" />
          </mxGeometry>
        </mxCell>
        <mxCell id="bGqVBYWvXgwGC4I8pHL_-104" value="push安装包、安装两个APK、启动插桩测试" style="edgeLabel;html=1;align=center;verticalAlign=middle;resizable=0;points=[];" parent="bGqVBYWvXgwGC4I8pHL_-103" vertex="1" connectable="0">
          <mxGeometry x="-0.1273" relative="1" as="geometry">
            <mxPoint x="-46.5" as="offset" />
          </mxGeometry>
        </mxCell>
        <mxCell id="bGqVBYWvXgwGC4I8pHL_-100" value="Adb服务端" style="rounded=0;whiteSpace=wrap;html=1;" parent="1" vertex="1">
          <mxGeometry x="-2790" y="-710" width="120" height="60" as="geometry" />
        </mxCell>
        <mxCell id="bGqVBYWvXgwGC4I8pHL_-110" style="edgeStyle=orthogonalEdgeStyle;rounded=0;orthogonalLoop=1;jettySize=auto;html=1;entryX=0;entryY=0.5;entryDx=0;entryDy=0;exitX=0.5;exitY=1;exitDx=0;exitDy=0;exitPerimeter=0;" parent="1" source="bGqVBYWvXgwGC4I8pHL_-101" target="bGqVBYWvXgwGC4I8pHL_-111" edge="1">
          <mxGeometry relative="1" as="geometry">
            <mxPoint x="-2420" y="-340" as="targetPoint" />
            <mxPoint x="-2717" y="-330" as="sourcePoint" />
            <Array as="points">
              <mxPoint x="-2717" y="-310" />
              <mxPoint x="-2588" y="-310" />
              <mxPoint x="-2588" y="-450" />
            </Array>
          </mxGeometry>
        </mxCell>
        <mxCell id="bGqVBYWvXgwGC4I8pHL_-101" value="" style="points=[[0.015,0.015,0],[0.985,0.015,0],[0.985,0.985,0],[0.015,0.985,0],[0.25,0,0],[0.5,0,0],[0.75,0,0],[1,0.25,0],[1,0.5,0],[1,0.75,0],[0.75,1,0],[0.5,1,0],[0.25,1,0],[0,0.75,0],[0,0.5,0],[0,0.25,0]];verticalLabelPosition=bottom;html=1;verticalAlign=top;aspect=fixed;align=center;pointerEvents=1;shape=mxgraph.cisco19.cell_phone;fillColor=#005073;strokeColor=none;" parent="1" vertex="1">
          <mxGeometry x="-2740" y="-440" width="45" height="90" as="geometry" />
        </mxCell>
        <mxCell id="bGqVBYWvXgwGC4I8pHL_-107" style="edgeStyle=orthogonalEdgeStyle;rounded=0;orthogonalLoop=1;jettySize=auto;html=1;entryX=0;entryY=0.5;entryDx=0;entryDy=0;" parent="1" source="bGqVBYWvXgwGC4I8pHL_-106" target="bGqVBYWvXgwGC4I8pHL_-100" edge="1">
          <mxGeometry relative="1" as="geometry">
            <mxPoint x="-2640" y="-740" as="targetPoint" />
          </mxGeometry>
        </mxCell>
        <mxCell id="bGqVBYWvXgwGC4I8pHL_-106" value="Adb客户端" style="rounded=0;whiteSpace=wrap;html=1;" parent="1" vertex="1">
          <mxGeometry x="-2600" y="-810" width="120" height="60" as="geometry" />
        </mxCell>
        <mxCell id="bGqVBYWvXgwGC4I8pHL_-113" value="插桩线程上报" style="edgeStyle=orthogonalEdgeStyle;rounded=0;orthogonalLoop=1;jettySize=auto;html=1;" parent="1" source="bGqVBYWvXgwGC4I8pHL_-111" target="bGqVBYWvXgwGC4I8pHL_-112" edge="1">
          <mxGeometry relative="1" as="geometry" />
        </mxCell>
        <mxCell id="bGqVBYWvXgwGC4I8pHL_-124" style="edgeStyle=orthogonalEdgeStyle;rounded=0;orthogonalLoop=1;jettySize=auto;html=1;entryX=0.5;entryY=0;entryDx=0;entryDy=0;" parent="1" source="bGqVBYWvXgwGC4I8pHL_-111" target="bGqVBYWvXgwGC4I8pHL_-116" edge="1">
          <mxGeometry relative="1" as="geometry">
            <Array as="points">
              <mxPoint x="-2100" y="-450" />
              <mxPoint x="-2100" y="-510" />
              <mxPoint x="-1760" y="-510" />
            </Array>
          </mxGeometry>
        </mxCell>
        <mxCell id="bGqVBYWvXgwGC4I8pHL_-125" value="上报采集的性能数据（每2s）" style="edgeLabel;html=1;align=center;verticalAlign=middle;resizable=0;points=[];" parent="bGqVBYWvXgwGC4I8pHL_-124" vertex="1" connectable="0">
          <mxGeometry x="-0.2727" y="26" relative="1" as="geometry">
            <mxPoint x="26" y="-26" as="offset" />
          </mxGeometry>
        </mxCell>
        <mxCell id="bGqVBYWvXgwGC4I8pHL_-111" value="客户端进程" style="rounded=0;whiteSpace=wrap;html=1;" parent="1" vertex="1">
          <mxGeometry x="-2481" y="-480" width="141" height="60" as="geometry" />
        </mxCell>
        <mxCell id="vUtNOjfx-Yac7MQ7vpSG-2" style="edgeStyle=orthogonalEdgeStyle;rounded=0;orthogonalLoop=1;jettySize=auto;html=1;entryX=1;entryY=0.5;entryDx=0;entryDy=0;entryPerimeter=0;" edge="1" parent="1" source="bGqVBYWvXgwGC4I8pHL_-112" target="bGqVBYWvXgwGC4I8pHL_-121">
          <mxGeometry relative="1" as="geometry" />
        </mxCell>
        <mxCell id="bGqVBYWvXgwGC4I8pHL_-112" value="我的后端" style="rounded=1;whiteSpace=wrap;html=1;" parent="1" vertex="1">
          <mxGeometry x="-2350" y="-380" width="120" height="60" as="geometry" />
        </mxCell>
        <mxCell id="bGqVBYWvXgwGC4I8pHL_-115" style="edgeStyle=orthogonalEdgeStyle;rounded=0;orthogonalLoop=1;jettySize=auto;html=1;entryX=1;entryY=0.5;entryDx=0;entryDy=0;" parent="1" source="bGqVBYWvXgwGC4I8pHL_-114" target="bGqVBYWvXgwGC4I8pHL_-112" edge="1">
          <mxGeometry relative="1" as="geometry" />
        </mxCell>
        <mxCell id="bGqVBYWvXgwGC4I8pHL_-132" value="请求流信息" style="edgeLabel;html=1;align=center;verticalAlign=middle;resizable=0;points=[];" parent="bGqVBYWvXgwGC4I8pHL_-115" vertex="1" connectable="0">
          <mxGeometry x="-0.2687" y="16" relative="1" as="geometry">
            <mxPoint as="offset" />
          </mxGeometry>
        </mxCell>
        <mxCell id="bGqVBYWvXgwGC4I8pHL_-117" style="edgeStyle=orthogonalEdgeStyle;rounded=0;orthogonalLoop=1;jettySize=auto;html=1;entryX=0.567;entryY=1;entryDx=0;entryDy=0;entryPerimeter=0;" parent="1" source="bGqVBYWvXgwGC4I8pHL_-114" target="bGqVBYWvXgwGC4I8pHL_-116" edge="1">
          <mxGeometry relative="1" as="geometry">
            <Array as="points">
              <mxPoint x="-1845" y="-430" />
              <mxPoint x="-1845" y="-340" />
              <mxPoint x="-1752" y="-340" />
            </Array>
          </mxGeometry>
        </mxCell>
        <mxCell id="bGqVBYWvXgwGC4I8pHL_-119" style="edgeStyle=orthogonalEdgeStyle;rounded=0;orthogonalLoop=1;jettySize=auto;html=1;" parent="1" source="bGqVBYWvXgwGC4I8pHL_-114" edge="1">
          <mxGeometry relative="1" as="geometry">
            <mxPoint x="-1930" y="-340" as="targetPoint" />
          </mxGeometry>
        </mxCell>
        <mxCell id="bGqVBYWvXgwGC4I8pHL_-114" value="自动化应用" style="rounded=0;whiteSpace=wrap;html=1;" parent="1" vertex="1">
          <mxGeometry x="-1990" y="-460" width="120" height="60" as="geometry" />
        </mxCell>
        <mxCell id="bGqVBYWvXgwGC4I8pHL_-116" value="采集后端" style="rounded=1;whiteSpace=wrap;html=1;" parent="1" vertex="1">
          <mxGeometry x="-1820" y="-490" width="120" height="60" as="geometry" />
        </mxCell>
        <mxCell id="bGqVBYWvXgwGC4I8pHL_-127" style="edgeStyle=orthogonalEdgeStyle;rounded=0;orthogonalLoop=1;jettySize=auto;html=1;" parent="1" source="bGqVBYWvXgwGC4I8pHL_-120" edge="1">
          <mxGeometry relative="1" as="geometry">
            <mxPoint x="-1560" y="-360" as="targetPoint" />
            <Array as="points">
              <mxPoint x="-1930" y="-160" />
              <mxPoint x="-1560" y="-160" />
            </Array>
          </mxGeometry>
        </mxCell>
        <mxCell id="bGqVBYWvXgwGC4I8pHL_-130" value="人肉上传（飞书没有接口）" style="edgeLabel;html=1;align=center;verticalAlign=middle;resizable=0;points=[];" parent="bGqVBYWvXgwGC4I8pHL_-127" vertex="1" connectable="0">
          <mxGeometry x="-0.1838" y="2" relative="1" as="geometry">
            <mxPoint as="offset" />
          </mxGeometry>
        </mxCell>
        <mxCell id="bGqVBYWvXgwGC4I8pHL_-120" value="Html自动化性能报告" style="shape=document;whiteSpace=wrap;html=1;boundedLbl=1;" parent="1" vertex="1">
          <mxGeometry x="-1990" y="-340" width="120" height="80" as="geometry" />
        </mxCell>
        <mxCell id="bGqVBYWvXgwGC4I8pHL_-121" value="DB" style="shape=cylinder3;whiteSpace=wrap;html=1;boundedLbl=1;backgroundOutline=1;size=15;" parent="1" vertex="1">
          <mxGeometry x="-2470" y="-300" width="60" height="80" as="geometry" />
        </mxCell>
        <mxCell id="vUtNOjfx-Yac7MQ7vpSG-4" style="edgeStyle=orthogonalEdgeStyle;rounded=0;orthogonalLoop=1;jettySize=auto;html=1;entryX=0;entryY=0.5;entryDx=0;entryDy=0;" edge="1" parent="1" source="bGqVBYWvXgwGC4I8pHL_-126" target="bGqVBYWvXgwGC4I8pHL_-129">
          <mxGeometry relative="1" as="geometry" />
        </mxCell>
        <mxCell id="bGqVBYWvXgwGC4I8pHL_-126" value="飞书前端" style="rounded=0;whiteSpace=wrap;html=1;" parent="1" vertex="1">
          <mxGeometry x="-1640" y="-400" width="120" height="60" as="geometry" />
        </mxCell>
        <mxCell id="bGqVBYWvXgwGC4I8pHL_-129" value="飞书后端" style="rounded=0;whiteSpace=wrap;html=1;" parent="1" vertex="1">
          <mxGeometry x="-1390" y="-340" width="120" height="60" as="geometry" />
        </mxCell>
        <mxCell id="bGqVBYWvXgwGC4I8pHL_-131" value="&lt;font style=&quot;font-size: 36px&quot;&gt;1.0的简单版架构图&lt;/font&gt;" style="text;html=1;strokeColor=none;fillColor=none;align=center;verticalAlign=middle;whiteSpace=wrap;rounded=0;" parent="1" vertex="1">
          <mxGeometry x="580" y="-100" width="440" height="150" as="geometry" />
        </mxCell>
        <mxCell id="bGqVBYWvXgwGC4I8pHL_-134" value="自动化报告" style="shape=document;whiteSpace=wrap;html=1;boundedLbl=1;" parent="1" vertex="1">
          <mxGeometry x="-460" y="510" width="120" height="80" as="geometry" />
        </mxCell>
        <mxCell id="bGqVBYWvXgwGC4I8pHL_-137" style="edgeStyle=orthogonalEdgeStyle;rounded=0;orthogonalLoop=1;jettySize=auto;html=1;" parent="1" source="bGqVBYWvXgwGC4I8pHL_-135" edge="1">
          <mxGeometry relative="1" as="geometry">
            <mxPoint x="-1081" y="440" as="targetPoint" />
            <Array as="points">
              <mxPoint x="-1081" y="495" />
            </Array>
          </mxGeometry>
        </mxCell>
        <mxCell id="bGqVBYWvXgwGC4I8pHL_-139" value="指令结果" style="edgeLabel;html=1;align=center;verticalAlign=middle;resizable=0;points=[];" parent="bGqVBYWvXgwGC4I8pHL_-137" vertex="1" connectable="0">
          <mxGeometry x="-0.1429" relative="1" as="geometry">
            <mxPoint as="offset" />
          </mxGeometry>
        </mxCell>
        <mxCell id="bGqVBYWvXgwGC4I8pHL_-135" value="UIAutomator进程" style="rounded=0;whiteSpace=wrap;html=1;" parent="1" vertex="1">
          <mxGeometry x="-1295" y="460" width="110" height="50" as="geometry" />
        </mxCell>
        <mxCell id="vUtNOjfx-Yac7MQ7vpSG-8" style="edgeStyle=orthogonalEdgeStyle;rounded=0;orthogonalLoop=1;jettySize=auto;html=1;entryX=0.5;entryY=0;entryDx=0;entryDy=0;" edge="1" parent="1" source="vUtNOjfx-Yac7MQ7vpSG-6" target="bGqVBYWvXgwGC4I8pHL_-126">
          <mxGeometry relative="1" as="geometry">
            <Array as="points">
              <mxPoint x="-1282" y="-530" />
              <mxPoint x="-1580" y="-530" />
            </Array>
          </mxGeometry>
        </mxCell>
        <mxCell id="vUtNOjfx-Yac7MQ7vpSG-6" value="Actor" style="shape=umlActor;verticalLabelPosition=bottom;verticalAlign=top;html=1;outlineConnect=0;" vertex="1" parent="1">
          <mxGeometry x="-1230" y="-570" width="35" height="70" as="geometry" />
        </mxCell>
        <mxCell id="vUtNOjfx-Yac7MQ7vpSG-51" value="&lt;font style=&quot;font-size: 36px&quot;&gt;手工测试流程&lt;/font&gt;" style="text;html=1;strokeColor=none;fillColor=none;align=center;verticalAlign=middle;whiteSpace=wrap;rounded=0;" vertex="1" parent="1">
          <mxGeometry x="-3519.5" y="-1770" width="260" height="50" as="geometry" />
        </mxCell>
        <mxCell id="vUtNOjfx-Yac7MQ7vpSG-65" value="深夜12点" style="html=1;verticalLabelPosition=bottom;align=center;labelBackgroundColor=#ffffff;verticalAlign=top;strokeWidth=2;strokeColor=#0080F0;shadow=0;dashed=0;shape=mxgraph.ios7.icons.clock;" vertex="1" parent="1">
          <mxGeometry x="-3109" y="-1350" width="70" height="70" as="geometry" />
        </mxCell>
        <mxCell id="vUtNOjfx-Yac7MQ7vpSG-67" value="" style="points=[[0.015,0.015,0],[0.985,0.015,0],[0.985,0.985,0],[0.015,0.985,0],[0.25,0,0],[0.5,0,0],[0.75,0,0],[1,0.25,0],[1,0.5,0],[1,0.75,0],[0.75,1,0],[0.5,1,0],[0.25,1,0],[0,0.75,0],[0,0.5,0],[0,0.25,0]];verticalLabelPosition=bottom;html=1;verticalAlign=top;aspect=fixed;align=center;pointerEvents=1;shape=mxgraph.cisco19.cell_phone;fillColor=#005073;strokeColor=none;" vertex="1" parent="1">
          <mxGeometry x="-3885.5" y="-1340" width="25" height="50" as="geometry" />
        </mxCell>
        <mxCell id="vUtNOjfx-Yac7MQ7vpSG-68" value="" style="points=[[0.015,0.015,0],[0.985,0.015,0],[0.985,0.985,0],[0.015,0.985,0],[0.25,0,0],[0.5,0,0],[0.75,0,0],[1,0.25,0],[1,0.5,0],[1,0.75,0],[0.75,1,0],[0.5,1,0],[0.25,1,0],[0,0.75,0],[0,0.5,0],[0,0.25,0]];verticalLabelPosition=bottom;html=1;verticalAlign=top;aspect=fixed;align=center;pointerEvents=1;shape=mxgraph.cisco19.cell_phone;fillColor=#005073;strokeColor=none;" vertex="1" parent="1">
          <mxGeometry x="-3930" y="-1340" width="25" height="50" as="geometry" />
        </mxCell>
        <mxCell id="vUtNOjfx-Yac7MQ7vpSG-69" value="&lt;font style=&quot;font-size: 24px&quot;&gt;1v1&lt;/font&gt;" style="text;html=1;strokeColor=none;fillColor=none;align=center;verticalAlign=middle;whiteSpace=wrap;rounded=0;" vertex="1" parent="1">
          <mxGeometry x="-4000" y="-1340" width="40" height="40" as="geometry" />
        </mxCell>
        <mxCell id="vUtNOjfx-Yac7MQ7vpSG-70" value="测试" style="shape=umlActor;verticalLabelPosition=bottom;verticalAlign=top;html=1;outlineConnect=0;" vertex="1" parent="1">
          <mxGeometry x="-3520.5" y="-1346" width="30" height="60" as="geometry" />
        </mxCell>
        <mxCell id="vUtNOjfx-Yac7MQ7vpSG-71" value="1、记录时间：10分钟&lt;br&gt;2、记录did、sid" style="shape=document;whiteSpace=wrap;html=1;boundedLbl=1;size=0.5652173913043478;" vertex="1" parent="1">
          <mxGeometry x="-3399" y="-1360" width="151.25" height="90" as="geometry" />
        </mxCell>
        <mxCell id="vUtNOjfx-Yac7MQ7vpSG-72" value="开发" style="shape=umlActor;verticalLabelPosition=bottom;verticalAlign=top;html=1;outlineConnect=0;" vertex="1" parent="1">
          <mxGeometry x="-3682" y="-1660" width="30" height="60" as="geometry" />
        </mxCell>
        <mxCell id="vUtNOjfx-Yac7MQ7vpSG-73" value="测试" style="shape=umlActor;verticalLabelPosition=bottom;verticalAlign=top;html=1;outlineConnect=0;" vertex="1" parent="1">
          <mxGeometry x="-3580" y="-1660" width="30" height="60" as="geometry" />
        </mxCell>
        <mxCell id="vUtNOjfx-Yac7MQ7vpSG-74" value="沟通" style="text;html=1;strokeColor=none;fillColor=none;align=center;verticalAlign=middle;whiteSpace=wrap;rounded=0;" vertex="1" parent="1">
          <mxGeometry x="-3632" y="-1630" width="40" height="20" as="geometry" />
        </mxCell>
        <mxCell id="vUtNOjfx-Yac7MQ7vpSG-76" value="" style="points=[[0.015,0.015,0],[0.985,0.015,0],[0.985,0.985,0],[0.015,0.985,0],[0.25,0,0],[0.5,0,0],[0.75,0,0],[1,0.25,0],[1,0.5,0],[1,0.75,0],[0.75,1,0],[0.5,1,0],[0.25,1,0],[0,0.75,0],[0,0.5,0],[0,0.25,0]];verticalLabelPosition=bottom;html=1;verticalAlign=top;aspect=fixed;align=center;pointerEvents=1;shape=mxgraph.cisco19.cell_phone;fillColor=#005073;strokeColor=none;" vertex="1" parent="1">
          <mxGeometry x="-3890" y="-1190" width="25" height="50" as="geometry" />
        </mxCell>
        <mxCell id="vUtNOjfx-Yac7MQ7vpSG-77" value="" style="points=[[0.015,0.015,0],[0.985,0.015,0],[0.985,0.985,0],[0.015,0.985,0],[0.25,0,0],[0.5,0,0],[0.75,0,0],[1,0.25,0],[1,0.5,0],[1,0.75,0],[0.75,1,0],[0.5,1,0],[0.25,1,0],[0,0.75,0],[0,0.5,0],[0,0.25,0]];verticalLabelPosition=bottom;html=1;verticalAlign=top;aspect=fixed;align=center;pointerEvents=1;shape=mxgraph.cisco19.cell_phone;fillColor=#005073;strokeColor=none;" vertex="1" parent="1">
          <mxGeometry x="-3930" y="-1190" width="25" height="50" as="geometry" />
        </mxCell>
        <mxCell id="vUtNOjfx-Yac7MQ7vpSG-78" value="&lt;font style=&quot;font-size: 24px&quot;&gt;1v2&lt;/font&gt;" style="text;html=1;strokeColor=none;fillColor=none;align=center;verticalAlign=middle;whiteSpace=wrap;rounded=0;" vertex="1" parent="1">
          <mxGeometry x="-4000" y="-1195" width="40" height="40" as="geometry" />
        </mxCell>
        <mxCell id="vUtNOjfx-Yac7MQ7vpSG-79" value="测试" style="shape=umlActor;verticalLabelPosition=bottom;verticalAlign=top;html=1;outlineConnect=0;" vertex="1" parent="1">
          <mxGeometry x="-3519.5" y="-1211" width="30" height="60" as="geometry" />
        </mxCell>
        <mxCell id="vUtNOjfx-Yac7MQ7vpSG-80" value="1、记录时间：10分钟&lt;br&gt;2、记录did、sid" style="shape=document;whiteSpace=wrap;html=1;boundedLbl=1;size=0.4347826086956521;" vertex="1" parent="1">
          <mxGeometry x="-3398.25" y="-1215" width="142.5" height="115" as="geometry" />
        </mxCell>
        <mxCell id="vUtNOjfx-Yac7MQ7vpSG-81" value="" style="points=[[0.015,0.015,0],[0.985,0.015,0],[0.985,0.985,0],[0.015,0.985,0],[0.25,0,0],[0.5,0,0],[0.75,0,0],[1,0.25,0],[1,0.5,0],[1,0.75,0],[0.75,1,0],[0.5,1,0],[0.25,1,0],[0,0.75,0],[0,0.5,0],[0,0.25,0]];verticalLabelPosition=bottom;html=1;verticalAlign=top;aspect=fixed;align=center;pointerEvents=1;shape=mxgraph.cisco19.cell_phone;fillColor=#005073;strokeColor=none;" vertex="1" parent="1">
          <mxGeometry x="-3848" y="-1190" width="25" height="50" as="geometry" />
        </mxCell>
        <mxCell id="vUtNOjfx-Yac7MQ7vpSG-91" value="" style="points=[[0.015,0.015,0],[0.985,0.015,0],[0.985,0.985,0],[0.015,0.985,0],[0.25,0,0],[0.5,0,0],[0.75,0,0],[1,0.25,0],[1,0.5,0],[1,0.75,0],[0.75,1,0],[0.5,1,0],[0.25,1,0],[0,0.75,0],[0,0.5,0],[0,0.25,0]];verticalLabelPosition=bottom;html=1;verticalAlign=top;aspect=fixed;align=center;pointerEvents=1;shape=mxgraph.cisco19.cell_phone;fillColor=#005073;strokeColor=none;" vertex="1" parent="1">
          <mxGeometry x="-3879.5" y="-1055.25" width="25" height="50" as="geometry" />
        </mxCell>
        <mxCell id="vUtNOjfx-Yac7MQ7vpSG-92" value="" style="points=[[0.015,0.015,0],[0.985,0.015,0],[0.985,0.985,0],[0.015,0.985,0],[0.25,0,0],[0.5,0,0],[0.75,0,0],[1,0.25,0],[1,0.5,0],[1,0.75,0],[0.75,1,0],[0.5,1,0],[0.25,1,0],[0,0.75,0],[0,0.5,0],[0,0.25,0]];verticalLabelPosition=bottom;html=1;verticalAlign=top;aspect=fixed;align=center;pointerEvents=1;shape=mxgraph.cisco19.cell_phone;fillColor=#005073;strokeColor=none;" vertex="1" parent="1">
          <mxGeometry x="-3930" y="-1055.25" width="25" height="50" as="geometry" />
        </mxCell>
        <mxCell id="vUtNOjfx-Yac7MQ7vpSG-93" value="&lt;font style=&quot;font-size: 24px&quot;&gt;1v3&lt;/font&gt;" style="text;html=1;strokeColor=none;fillColor=none;align=center;verticalAlign=middle;whiteSpace=wrap;rounded=0;" vertex="1" parent="1">
          <mxGeometry x="-4000" y="-1050" width="40" height="40" as="geometry" />
        </mxCell>
        <mxCell id="vUtNOjfx-Yac7MQ7vpSG-96" value="" style="points=[[0.015,0.015,0],[0.985,0.015,0],[0.985,0.985,0],[0.015,0.985,0],[0.25,0,0],[0.5,0,0],[0.75,0,0],[1,0.25,0],[1,0.5,0],[1,0.75,0],[0.75,1,0],[0.5,1,0],[0.25,1,0],[0,0.75,0],[0,0.5,0],[0,0.25,0]];verticalLabelPosition=bottom;html=1;verticalAlign=top;aspect=fixed;align=center;pointerEvents=1;shape=mxgraph.cisco19.cell_phone;fillColor=#005073;strokeColor=none;" vertex="1" parent="1">
          <mxGeometry x="-3835.5" y="-1055.25" width="25" height="50" as="geometry" />
        </mxCell>
        <mxCell id="vUtNOjfx-Yac7MQ7vpSG-97" value="测试" style="shape=umlActor;verticalLabelPosition=bottom;verticalAlign=top;html=1;outlineConnect=0;" vertex="1" parent="1">
          <mxGeometry x="-3519.5" y="-1069" width="30" height="60" as="geometry" />
        </mxCell>
        <mxCell id="vUtNOjfx-Yac7MQ7vpSG-98" value="1、记录时间：10分钟&lt;br&gt;2、记录did、sid" style="shape=document;whiteSpace=wrap;html=1;boundedLbl=1;size=0.4347826086956521;" vertex="1" parent="1">
          <mxGeometry x="-3400" y="-1071" width="150" height="115" as="geometry" />
        </mxCell>
        <mxCell id="vUtNOjfx-Yac7MQ7vpSG-99" value="" style="points=[[0.015,0.015,0],[0.985,0.015,0],[0.985,0.985,0],[0.015,0.985,0],[0.25,0,0],[0.5,0,0],[0.75,0,0],[1,0.25,0],[1,0.5,0],[1,0.75,0],[0.75,1,0],[0.5,1,0],[0.25,1,0],[0,0.75,0],[0,0.5,0],[0,0.25,0]];verticalLabelPosition=bottom;html=1;verticalAlign=top;aspect=fixed;align=center;pointerEvents=1;shape=mxgraph.cisco19.cell_phone;fillColor=#005073;strokeColor=none;" vertex="1" parent="1">
          <mxGeometry x="-3789" y="-1054.75" width="25" height="50" as="geometry" />
        </mxCell>
        <mxCell id="vUtNOjfx-Yac7MQ7vpSG-114" value="深夜10点" style="html=1;verticalLabelPosition=bottom;align=center;labelBackgroundColor=#ffffff;verticalAlign=top;strokeWidth=2;strokeColor=#0080F0;shadow=0;dashed=0;shape=mxgraph.ios7.icons.clock;" vertex="1" parent="1">
          <mxGeometry x="-3109" y="-1490" width="70" height="70" as="geometry" />
        </mxCell>
        <mxCell id="vUtNOjfx-Yac7MQ7vpSG-117" value="下文2点" style="html=1;verticalLabelPosition=bottom;align=center;labelBackgroundColor=#ffffff;verticalAlign=top;strokeWidth=2;strokeColor=#0080F0;shadow=0;dashed=0;shape=mxgraph.ios7.icons.clock;" vertex="1" parent="1">
          <mxGeometry x="-3450" y="-1655" width="70" height="70" as="geometry" />
        </mxCell>
        <mxCell id="vUtNOjfx-Yac7MQ7vpSG-118" value="开发" style="shape=umlActor;verticalLabelPosition=bottom;verticalAlign=top;html=1;outlineConnect=0;" vertex="1" parent="1">
          <mxGeometry x="-3682" y="-1550" width="30" height="60" as="geometry" />
        </mxCell>
        <mxCell id="vUtNOjfx-Yac7MQ7vpSG-119" style="edgeStyle=orthogonalEdgeStyle;rounded=0;orthogonalLoop=1;jettySize=auto;html=1;" edge="1" parent="1" source="vUtNOjfx-Yac7MQ7vpSG-121">
          <mxGeometry relative="1" as="geometry">
            <mxPoint x="-3292" y="-1470" as="targetPoint" />
          </mxGeometry>
        </mxCell>
        <mxCell id="vUtNOjfx-Yac7MQ7vpSG-120" value="手机、打包、apk文件、安装" style="edgeLabel;html=1;align=center;verticalAlign=middle;resizable=0;points=[];" vertex="1" connectable="0" parent="vUtNOjfx-Yac7MQ7vpSG-119">
          <mxGeometry x="-0.1174" y="2" relative="1" as="geometry">
            <mxPoint x="1" as="offset" />
          </mxGeometry>
        </mxCell>
        <mxCell id="vUtNOjfx-Yac7MQ7vpSG-121" value="测试" style="shape=umlActor;verticalLabelPosition=bottom;verticalAlign=top;html=1;outlineConnect=0;" vertex="1" parent="1">
          <mxGeometry x="-3622" y="-1550" width="30" height="60" as="geometry" />
        </mxCell>
        <mxCell id="vUtNOjfx-Yac7MQ7vpSG-122" value="" style="points=[[0.015,0.015,0],[0.985,0.015,0],[0.985,0.985,0],[0.015,0.985,0],[0.25,0,0],[0.5,0,0],[0.75,0,0],[1,0.25,0],[1,0.5,0],[1,0.75,0],[0.75,1,0],[0.5,1,0],[0.25,1,0],[0,0.75,0],[0,0.5,0],[0,0.25,0]];verticalLabelPosition=bottom;html=1;verticalAlign=top;aspect=fixed;align=center;pointerEvents=1;shape=mxgraph.cisco19.cell_phone;fillColor=#005073;strokeColor=none;" vertex="1" parent="1">
          <mxGeometry x="-3367" y="-1460" width="25" height="50" as="geometry" />
        </mxCell>
        <mxCell id="vUtNOjfx-Yac7MQ7vpSG-123" value="" style="points=[[0.015,0.015,0],[0.985,0.015,0],[0.985,0.985,0],[0.015,0.985,0],[0.25,0,0],[0.5,0,0],[0.75,0,0],[1,0.25,0],[1,0.5,0],[1,0.75,0],[0.75,1,0],[0.5,1,0],[0.25,1,0],[0,0.75,0],[0,0.5,0],[0,0.25,0]];verticalLabelPosition=bottom;html=1;verticalAlign=top;aspect=fixed;align=center;pointerEvents=1;shape=mxgraph.cisco19.cell_phone;fillColor=#005073;strokeColor=none;direction=east;" vertex="1" parent="1">
          <mxGeometry x="-3332" y="-1460" width="25" height="50" as="geometry" />
        </mxCell>
        <mxCell id="vUtNOjfx-Yac7MQ7vpSG-124" value="" style="points=[[0.015,0.015,0],[0.985,0.015,0],[0.985,0.985,0],[0.015,0.985,0],[0.25,0,0],[0.5,0,0],[0.75,0,0],[1,0.25,0],[1,0.5,0],[1,0.75,0],[0.75,1,0],[0.5,1,0],[0.25,1,0],[0,0.75,0],[0,0.5,0],[0,0.25,0]];verticalLabelPosition=bottom;html=1;verticalAlign=top;aspect=fixed;align=center;pointerEvents=1;shape=mxgraph.cisco19.cell_phone;fillColor=#005073;strokeColor=none;" vertex="1" parent="1">
          <mxGeometry x="-3297" y="-1460" width="25" height="50" as="geometry" />
        </mxCell>
        <mxCell id="vUtNOjfx-Yac7MQ7vpSG-125" value="" style="points=[[0.015,0.015,0],[0.985,0.015,0],[0.985,0.985,0],[0.015,0.985,0],[0.25,0,0],[0.5,0,0],[0.75,0,0],[1,0.25,0],[1,0.5,0],[1,0.75,0],[0.75,1,0],[0.5,1,0],[0.25,1,0],[0,0.75,0],[0,0.5,0],[0,0.25,0]];verticalLabelPosition=bottom;html=1;verticalAlign=top;aspect=fixed;align=center;pointerEvents=1;shape=mxgraph.cisco19.cell_phone;fillColor=#005073;strokeColor=none;" vertex="1" parent="1">
          <mxGeometry x="-3262" y="-1460" width="25" height="50" as="geometry" />
        </mxCell>
        <mxCell id="vUtNOjfx-Yac7MQ7vpSG-126" value="" style="points=[[0.015,0.015,0],[0.985,0.015,0],[0.985,0.985,0],[0.015,0.985,0],[0.25,0,0],[0.5,0,0],[0.75,0,0],[1,0.25,0],[1,0.5,0],[1,0.75,0],[0.75,1,0],[0.5,1,0],[0.25,1,0],[0,0.75,0],[0,0.5,0],[0,0.25,0]];verticalLabelPosition=bottom;html=1;verticalAlign=top;aspect=fixed;align=center;pointerEvents=1;shape=mxgraph.cisco19.cell_phone;fillColor=#005073;strokeColor=none;" vertex="1" parent="1">
          <mxGeometry x="-3227" y="-1460" width="25" height="50" as="geometry" />
        </mxCell>
        <mxCell id="vUtNOjfx-Yac7MQ7vpSG-127" value="" style="points=[[0.015,0.015,0],[0.985,0.015,0],[0.985,0.985,0],[0.015,0.985,0],[0.25,0,0],[0.5,0,0],[0.75,0,0],[1,0.25,0],[1,0.5,0],[1,0.75,0],[0.75,1,0],[0.5,1,0],[0.25,1,0],[0,0.75,0],[0,0.5,0],[0,0.25,0]];verticalLabelPosition=bottom;html=1;verticalAlign=top;aspect=fixed;align=center;pointerEvents=1;shape=mxgraph.cisco19.cell_phone;fillColor=#005073;strokeColor=none;" vertex="1" parent="1">
          <mxGeometry x="-3402" y="-1460" width="25" height="50" as="geometry" />
        </mxCell>
        <mxCell id="vUtNOjfx-Yac7MQ7vpSG-128" value="" style="points=[[0.015,0.015,0],[0.985,0.015,0],[0.985,0.985,0],[0.015,0.985,0],[0.25,0,0],[0.5,0,0],[0.75,0,0],[1,0.25,0],[1,0.5,0],[1,0.75,0],[0.75,1,0],[0.5,1,0],[0.25,1,0],[0,0.75,0],[0,0.5,0],[0,0.25,0]];verticalLabelPosition=bottom;html=1;verticalAlign=top;aspect=fixed;align=center;pointerEvents=1;shape=mxgraph.cisco19.cell_phone;fillColor=#005073;strokeColor=none;" vertex="1" parent="1">
          <mxGeometry x="-3442" y="-1460" width="25" height="50" as="geometry" />
        </mxCell>
        <mxCell id="vUtNOjfx-Yac7MQ7vpSG-129" value="" style="points=[[0.015,0.015,0],[0.985,0.015,0],[0.985,0.985,0],[0.015,0.985,0],[0.25,0,0],[0.5,0,0],[0.75,0,0],[1,0.25,0],[1,0.5,0],[1,0.75,0],[0.75,1,0],[0.5,1,0],[0.25,1,0],[0,0.75,0],[0,0.5,0],[0,0.25,0]];verticalLabelPosition=bottom;html=1;verticalAlign=top;aspect=fixed;align=center;pointerEvents=1;shape=mxgraph.cisco19.cell_phone;fillColor=#005073;strokeColor=none;" vertex="1" parent="1">
          <mxGeometry x="-3192" y="-1460" width="25" height="50" as="geometry" />
        </mxCell>
        <mxCell id="vUtNOjfx-Yac7MQ7vpSG-130" value="" style="points=[[0.015,0.015,0],[0.985,0.015,0],[0.985,0.985,0],[0.015,0.985,0],[0.25,0,0],[0.5,0,0],[0.75,0,0],[1,0.25,0],[1,0.5,0],[1,0.75,0],[0.75,1,0],[0.5,1,0],[0.25,1,0],[0,0.75,0],[0,0.5,0],[0,0.25,0]];verticalLabelPosition=bottom;html=1;verticalAlign=top;aspect=fixed;align=center;pointerEvents=1;shape=mxgraph.cisco19.cell_phone;fillColor=#005073;strokeColor=none;" vertex="1" parent="1">
          <mxGeometry x="-3154.5" y="-1460" width="25" height="50" as="geometry" />
        </mxCell>
        <mxCell id="vUtNOjfx-Yac7MQ7vpSG-131" value="深夜12点15分" style="html=1;verticalLabelPosition=bottom;align=center;labelBackgroundColor=#ffffff;verticalAlign=top;strokeWidth=2;strokeColor=#0080F0;shadow=0;dashed=0;shape=mxgraph.ios7.icons.clock;" vertex="1" parent="1">
          <mxGeometry x="-3109" y="-1210" width="70" height="70" as="geometry" />
        </mxCell>
        <mxCell id="vUtNOjfx-Yac7MQ7vpSG-132" value="深夜12点30分" style="html=1;verticalLabelPosition=bottom;align=center;labelBackgroundColor=#ffffff;verticalAlign=top;strokeWidth=2;strokeColor=#0080F0;shadow=0;dashed=0;shape=mxgraph.ios7.icons.clock;" vertex="1" parent="1">
          <mxGeometry x="-3109" y="-1055.5" width="70" height="70" as="geometry" />
        </mxCell>
        <mxCell id="vUtNOjfx-Yac7MQ7vpSG-139" value="启动App&lt;br&gt;输入房间号&lt;br&gt;开播" style="ellipse;whiteSpace=wrap;html=1;" vertex="1" parent="1">
          <mxGeometry x="-3681" y="-1355" width="120" height="80" as="geometry" />
        </mxCell>
        <mxCell id="vUtNOjfx-Yac7MQ7vpSG-140" value="启动App&lt;br&gt;输入房间号&lt;br&gt;开播" style="ellipse;whiteSpace=wrap;html=1;" vertex="1" parent="1">
          <mxGeometry x="-3677" y="-1210" width="120" height="80" as="geometry" />
        </mxCell>
        <mxCell id="vUtNOjfx-Yac7MQ7vpSG-141" value="启动App&lt;br&gt;输入房间号&lt;br&gt;开播" style="ellipse;whiteSpace=wrap;html=1;" vertex="1" parent="1">
          <mxGeometry x="-3673" y="-1080" width="120" height="80" as="geometry" />
        </mxCell>
      </root>
    </mxGraphModel>
  </diagram>
</mxfile>
